<svg width="17" height="17" viewBox="0 0 17 17" fill="none" xmlns="http://www.w3.org/2000/svg">
<path d="M15.9343 17C6.87013 17.0127 -0.00955254 10.0512 9.95636e-06 1.06569C9.95636e-06 0.478124 0.47601 0 1.06251 0H3.86751C4.39344 0 4.84076 0.38675 4.91832 0.907374C5.1033 2.15587 5.46648 3.37136 5.99676 4.51668L6.10619 4.75256C6.17971 4.91128 6.19552 5.09069 6.15091 5.25983C6.1063 5.42897 6.00405 5.57724 5.86182 5.67906C4.99269 6.29956 4.66119 7.54799 5.33801 8.52124C6.19012 9.74665 7.25363 10.8105 8.47875 11.6631C9.45307 12.3388 10.7015 12.0073 11.3209 11.1392C11.4227 10.9966 11.571 10.894 11.7404 10.8491C11.9098 10.8043 12.0895 10.8201 12.2485 10.8938L12.4833 11.0022C13.6287 11.5334 14.8442 11.8968 16.0926 12.0817C16.6133 12.1592 17 12.6065 17 13.1335V15.9375C17 16.0771 16.9725 16.2154 16.919 16.3443C16.8656 16.4733 16.7872 16.5905 16.6884 16.6892C16.5897 16.7878 16.4724 16.8661 16.3434 16.9194C16.2143 16.9727 16.0761 17.0001 15.9364 17H15.9343Z" fill="white"/>
</svg>
