<svg width="20" height="20" viewBox="0 0 20 20" fill="none" xmlns="http://www.w3.org/2000/svg">
<path d="M16.6667 3.33333H3.33332C2.8913 3.33333 2.46737 3.50892 2.15481 3.82148C1.84225 4.13404 1.66666 4.55797 1.66666 4.99999V15C1.66666 15.442 1.84225 15.8659 2.15481 16.1785C2.46737 16.4911 2.8913 16.6667 3.33332 16.6667H16.6667C17.1087 16.6667 17.5326 16.4911 17.8452 16.1785C18.1577 15.8659 18.3333 15.442 18.3333 15V4.99999C18.3333 4.55797 18.1577 4.13404 17.8452 3.82148C17.5326 3.50892 17.1087 3.33333 16.6667 3.33333ZM16.6667 7.24999L9.99999 11.695L3.33332 7.24999V5.24749L9.99999 9.69166L16.6667 5.24749V7.24999Z" fill="white"/>
</svg>
